<svg id="グループ_7" data-name="グループ 7" xmlns="http://www.w3.org/2000/svg" width="115.125" height="436.88" viewBox="0 0 115.125 436.88">
  <defs>
    <style>
      .cls-1, .cls-2, .cls-3 {
        fill: #fabe00;
      }

      .cls-1, .cls-3 {
        fill-opacity: 0.8;
      }

      .cls-1 {
        fill-rule: evenodd;
      }

      .cls-2 {
        fill-opacity: 0.3;
      }
    </style>
  </defs>
  <path id="長方形_12" data-name="長方形 12" class="cls-1" d="M181.121,9584L193,9572.12,204.879,9584,193,9595.88Z" transform="translate(-89.75 -9572.12)"/>
  <path id="長方形_12-2" data-name="長方形 12" class="cls-1" d="M94,9775.76l4.243,4.24L94,9784.24,89.757,9780Z" transform="translate(-89.75 -9572.12)"/>
  <rect id="長方形_12-3" data-name="長方形 12" class="cls-2" x="85.25" y="422.88" width="14" height="14"/>
  <path id="長方形_12-4" data-name="長方形 12" class="cls-1" d="M123.456,9953.27l6.364,6.37-6.364,6.36-6.364-6.36Z" transform="translate(-89.75 -9572.12)"/>
  <rect id="長方形_12-5" data-name="長方形 12" class="cls-3" x="76.25" y="333.88" width="6" height="6"/>
  <path id="長方形_12-6" data-name="長方形 12" class="cls-1" d="M193.456,9879.27l6.364,6.37-6.364,6.36-6.364-6.36Z" transform="translate(-89.75 -9572.12)"/>
  <path id="長方形_12-7" data-name="長方形 12" class="cls-1" d="M177.456,9732.27l6.364,6.37-6.364,6.36-6.364-6.36Z" transform="translate(-89.75 -9572.12)"/>
  <rect id="長方形_12-8" data-name="長方形 12" class="cls-2" x="1.25" y="28.88" width="14" height="14"/>
  <path id="長方形_12-9" data-name="長方形 12" class="cls-1" d="M191,9690.76l4.243,4.24L191,9699.24l-4.243-4.24Z" transform="translate(-89.75 -9572.12)"/>
  <rect id="長方形_12-10" data-name="長方形 12" class="cls-3" x="79.25" y="79.88" width="6" height="6"/>
  <rect id="長方形_12-11" data-name="長方形 12" class="cls-3" x="24.25" y="122.88" width="11" height="11"/>
</svg>
