<?xml version="1.0" encoding="utf-8"?>
<!-- Generator: Adobe Illustrator 20.1.0, SVG Export Plug-In . SVG Version: 6.00 Build 0)  -->
<svg version="1.1" id="グループ_1" xmlns="http://www.w3.org/2000/svg" xmlns:xlink="http://www.w3.org/1999/xlink" x="0px"
	 y="0px" width="776.8px" height="612.8px" viewBox="0 0 776.8 612.8" style="enable-background:new 0 0 776.8 612.8;"
	 xml:space="preserve">
<style type="text/css">
	.st0{fill:#FABE00;fill-opacity:0.6;}
	.st1{fill:#FABE00;fill-opacity:0.3;}
	.st2{fill:#FABE00;}
</style>
<path id="長方形_11" class="st0" d="M729,0l12,12l-12,12l-12-12L729,0z"/>
<path id="長方形_11-2" class="st0" d="M12,417l12,12l-12,12L0,429L12,417z"/>
<path id="長方形_11-3" class="st1" d="M149.5,374.5v17h-17v-17H149.5z"/>
<path id="長方形_11-4" class="st0" d="M776.5,462.5v17h-17v-17H776.5z"/>
<path id="長方形_11-5" class="st2" d="M724,549l-12,12l-12-12l12-12L724,549z"/>
<rect id="長方形_11-6" x="698.5" y="416.5" class="st2" width="10" height="10"/>
<rect id="長方形_11-7" x="644.5" y="40.5" class="st2" width="10" height="10"/>
<rect id="長方形_11-8" x="233.5" y="14.5" class="st1" width="10" height="10"/>
<path id="長方形_11-9" class="st2" d="M207.5,168.4l7.1,7.1l-7.1,7.1l-7.1-7.1L207.5,168.4z"/>
<path id="長方形_11-10" class="st2" d="M125.5,58.4l7.1,7.1l-7.1,7.1l-7.1-7.1L125.5,58.4z"/>
<rect id="長方形_11-11" x="116.5" y="244.5" class="st0" width="6" height="6"/>
<path id="長方形_11-12" class="st0" d="M722.5,179.3l4.2,4.2l-4.2,4.2l-4.2-4.2L722.5,179.3z"/>
<path id="長方形_11-13" class="st1" d="M605.5,653.3l4.2,4.2l-4.2,4.2l-4.2-4.2L605.5,653.3z"/>
<path id="長方形_11-14" class="st0" d="M279.5,604.3l4.2,4.2l-4.2,4.2l-4.2-4.2L279.5,604.3z"/>
<path id="長方形_11-15" class="st2" d="M772.5,307.3l4.2,4.2l-4.2,4.2l-4.2-4.2L772.5,307.3z"/>
<path id="長方形_11-16" class="st0" d="M722.5,371.5L722.5,371.5z"/>
</svg>
