<svg id="あしらい" xmlns="http://www.w3.org/2000/svg" width="357" height="159" viewBox="0 0 357 159">
  <defs>
    <style>
      .cls-1, .cls-2, .cls-3, .cls-4 {
        fill: #fff;
      }

      .cls-1, .cls-3 {
        fill-opacity: 0.3;
      }

      .cls-2, .cls-4 {
        fill-opacity: 0.8;
      }

      .cls-3, .cls-4 {
        fill-rule: evenodd;
      }
    </style>
  </defs>
  <rect id="長方形_12" data-name="長方形 12" class="cls-1" x="343" y="52" width="14" height="14"/>
  <rect id="長方形_12-2" data-name="長方形 12" class="cls-2" x="23" y="89" width="11" height="11"/>
  <path id="長方形_12-3" data-name="長方形 12" class="cls-3" d="M547,3364.76l4.243,4.24L547,3373.24l-4.243-4.24Z" transform="translate(-509 -3237)"/>
  <path id="長方形_12-4" data-name="長方形 12" class="cls-4" d="M830,3258.76l4.243,4.24L830,3267.24l-4.243-4.24Z" transform="translate(-509 -3237)"/>
  <rect id="長方形_12-5" data-name="長方形 12" class="cls-2" y="36" width="6" height="6"/>
  <rect id="長方形_12-6" data-name="長方形 12" class="cls-1" x="57" y="95" width="6" height="6"/>
  <rect id="長方形_12-7" data-name="長方形 12" class="cls-2" x="296" y="49" width="6" height="6"/>
  <rect id="長方形_12-8" data-name="長方形 12" class="cls-2" x="147" width="6" height="6"/>
  <path id="長方形_12-9" data-name="長方形 12" class="cls-4" d="M676.456,3258.27l6.364,6.37-6.364,6.36-6.364-6.36Z" transform="translate(-509 -3237)"/>
  <path id="長方形_12-10" data-name="長方形 12" class="cls-4" d="M818.456,3383.27l6.364,6.37-6.364,6.36-6.364-6.36Z" transform="translate(-509 -3237)"/>
</svg>
