<svg id="あしらい" xmlns="http://www.w3.org/2000/svg" width="672" height="301" viewBox="0 0 672 301">
  <defs>
    <style>
      .cls-1, .cls-2, .cls-3, .cls-4 {
        fill: #fff;
      }

      .cls-1, .cls-4 {
        fill-opacity: 0.3;
      }

      .cls-2, .cls-3 {
        fill-opacity: 0.8;
      }

      .cls-3, .cls-4 {
        fill-rule: evenodd;
      }
    </style>
  </defs>
  <rect id="長方形_12" data-name="長方形 12" class="cls-1" x="148" y="92.16" width="28" height="28.03"/>
  <rect id="長方形_12-2" data-name="長方形 12" class="cls-1" x="644" y="102.16" width="28" height="28.06"/>
  <rect id="長方形_12-3" data-name="長方形 12" class="cls-2" x="-28" y="150.25" width="22" height="22.03"/>
  <path id="長方形_12-4" data-name="長方形 12" class="cls-3" d="M44.241,5863.14L68,5839.34l23.759,23.8L68,5886.93Z" transform="translate(0 -5781)"/>
  <path id="長方形_12-5" data-name="長方形 12" class="cls-3" d="M250,6036.94l8.485,8.5-8.485,8.5-8.485-8.5Z" transform="translate(0 -5781)"/>
  <path id="長方形_12-6" data-name="長方形 12" class="cls-4" d="M34,6034.94l8.485,8.5L34,6051.94l-8.485-8.5Z" transform="translate(0 -5781)"/>
  <path id="長方形_12-7" data-name="長方形 12" class="cls-3" d="M570,6064.99l8.485,8.5-8.485,8.5-8.485-8.5Z" transform="translate(0 -5781)"/>
  <path id="長方形_12-8" data-name="長方形 12" class="cls-3" d="M-42,5851.12h12v12.02H-42v-12.02Z" transform="translate(0 -5781)"/>
  <path id="長方形_12-9" data-name="長方形 12" class="cls-4" d="M72,5969.31H84v12.02H72v-12.02Z" transform="translate(0 -5781)"/>
  <path id="長方形_12-10" data-name="長方形 12" class="cls-3" d="M212,5921.23h12v12.02H212v-12.02Z" transform="translate(0 -5781)"/>
  <path id="長方形_12-11" data-name="長方形 12" class="cls-3" d="M112,5781h12v12.02H112V5781Z" transform="translate(0 -5781)"/>
  <path id="長方形_12-12" data-name="長方形 12" class="cls-3" d="M602,5987.34h12v12.02H602v-12.02Z" transform="translate(0 -5781)"/>
  <path id="長方形_12-13" data-name="長方形 12" class="cls-3" d="M160.912,6007.92l12.728,12.75-12.728,12.75-12.728-12.75Z" transform="translate(0 -5781)"/>
  <path id="長方形_12-14" data-name="長方形 12" class="cls-3" d="M510.912,5969.86l12.727,12.75-12.727,12.75-12.728-12.75Z" transform="translate(0 -5781)"/>
</svg>
