<svg id="あしらい" xmlns="http://www.w3.org/2000/svg" width="204.312" height="170.69" viewBox="0 0 204.312 170.69">
  <defs>
    <style>
      .cls-1, .cls-2, .cls-3, .cls-4, .cls-5, .cls-6 {
        fill: #fabe00;
      }

      .cls-1, .cls-4 {
        fill-opacity: 0.3;
      }

      .cls-2, .cls-3 {
        fill-opacity: 0.8;
      }

      .cls-3, .cls-4, .cls-5, .cls-6 {
        fill-rule: evenodd;
      }

      .cls-5 {
        opacity: 0.3;
      }

      .cls-6 {
        opacity: 0.8;
      }
    </style>
  </defs>
  <rect id="長方形_12" data-name="長方形 12" class="cls-1" x="178.812" width="16.782" height="16.81"/>
  <rect id="長方形_12-2" data-name="長方形 12" class="cls-2" x="128.406" y="128.41" width="13.188" height="13.18"/>
  <path id="長方形_12-3" data-name="長方形 12" class="cls-3" d="M109.01,2129.4l14.39-14.39,14.39,14.39-14.39,14.39Z" transform="translate(-88.594 -2091)"/>
  <path id="長方形_12-4" data-name="長方形 12" class="cls-3" d="M202.6,2107.51l5.091,5.09-5.091,5.09-5.091-5.09Z" transform="translate(-88.594 -2091)"/>
  <path id="長方形_12-5" data-name="長方形 12" class="cls-4" d="M191.8,2167.51l5.091,5.09-5.091,5.09-5.091-5.09Z" transform="translate(-88.594 -2091)"/>
  <path id="長方形_12-6" data-name="長方形 12" class="cls-3" d="M287.8,2251.51l5.091,5.09-5.091,5.09-5.091-5.09Z" transform="translate(-88.594 -2091)"/>
  <path id="長方形_12-7" data-name="長方形 12" class="cls-3" d="M232.6,2182.2h7.2v7.2h-7.2v-7.2Z" transform="translate(-88.594 -2091)"/>
  <path id="長方形_12-8" data-name="長方形 12" class="cls-4" d="M88.6,2182.2h7.2v7.2H88.6v-7.2Z" transform="translate(-88.594 -2091)"/>
  <path id="長方形_12-9" data-name="長方形 12" class="cls-3" d="M285.4,2155.8h7.2v7.2h-7.2v-7.2Z" transform="translate(-88.594 -2091)"/>
  <path id="長方形_12-10" data-name="長方形 12" class="cls-5" d="M282.347,2217.33l7.637,7.63-7.637,7.64-7.637-7.64Z" transform="translate(-88.594 -2091)"/>
  <path id="長方形_12-11" data-name="長方形 12" class="cls-6" d="M145.547,2189.73l7.637,7.63-7.637,7.64-7.637-7.64Z" transform="translate(-88.594 -2091)"/>
</svg>
