<svg id="あしらい" xmlns="http://www.w3.org/2000/svg" width="368.906" height="285" viewBox="0 0 368.906 285">
  <defs>
    <style>
      .cls-1, .cls-2, .cls-3, .cls-4 {
        fill: #fabe00;
      }

      .cls-1, .cls-2 {
        fill-opacity: 0.3;
      }

      .cls-2, .cls-3 {
        fill-rule: evenodd;
      }

      .cls-3, .cls-4 {
        fill-opacity: 0.8;
      }
    </style>
  </defs>
  <rect id="長方形_12" data-name="長方形 12" class="cls-1" x="13.906" y="168" width="14" height="14"/>
  <path id="長方形_12-2" data-name="長方形 12" class="cls-2" d="M460,4780.76l4.243,4.24L460,4789.24l-4.243-4.24Z" transform="translate(-157.094 -4697)"/>
  <path id="長方形_12-3" data-name="長方形 12" class="cls-3" d="M230,4960.76l4.243,4.24L230,4969.24l-4.243-4.24Z" transform="translate(-157.094 -4697)"/>
  <rect id="長方形_12-4" data-name="長方形 12" class="cls-4" x="285.906" y="35" width="6" height="6"/>
  <rect id="長方形_12-5" data-name="長方形 12" class="cls-4" x="362.906" width="6" height="6"/>
  <rect id="長方形_12-6" data-name="長方形 12" class="cls-4" x="32.906" y="213" width="6" height="6"/>
  <path id="長方形_12-7" data-name="長方形 12" class="cls-2" d="M189.456,4969.27l6.364,6.37-6.364,6.36-6.364-6.36Z" transform="translate(-157.094 -4697)"/>
  <path id="長方形_12-8" data-name="長方形 12" class="cls-3" d="M163.456,4952.27l6.364,6.37-6.364,6.36-6.364-6.36Z" transform="translate(-157.094 -4697)"/>
  <path id="長方形_12-9" data-name="長方形 12" class="cls-3" d="M202.456,4930.27l6.364,6.37-6.364,6.36-6.364-6.36Z" transform="translate(-157.094 -4697)"/>
</svg>
