<svg id="あしらい" xmlns="http://www.w3.org/2000/svg" width="363.81" height="194.25" viewBox="0 0 363.81 194.25">
  <defs>
    <style>
      .cls-1, .cls-2, .cls-3, .cls-4 {
        fill: #fff;
      }

      .cls-1, .cls-4 {
        fill-opacity: 0.3;
      }

      .cls-2, .cls-3 {
        fill-opacity: 0.8;
      }

      .cls-3, .cls-4 {
        fill-rule: evenodd;
      }
    </style>
  </defs>
  <rect id="長方形_12" data-name="長方形 12" class="cls-1" x="343" y="74" width="14" height="14"/>
  <rect id="長方形_12-2" data-name="長方形 12" class="cls-2" x="40" y="70" width="11" height="11"/>
  <path id="長方形_12-3" data-name="長方形 12" class="cls-3" d="M1211,3390.76l4.24,4.24-4.24,4.24-4.24-4.24Z" transform="translate(-879 -3205)"/>
  <path id="長方形_12-4" data-name="長方形 12" class="cls-4" d="M917,3354.76l4.243,4.24L917,3363.24l-4.243-4.24Z" transform="translate(-879 -3205)"/>
  <rect id="長方形_12-5" data-name="長方形 12" class="cls-2" y="58" width="6" height="6"/>
  <rect id="長方形_12-6" data-name="長方形 12" class="cls-1" x="287" width="6" height="6"/>
  <rect id="長方形_12-7" data-name="長方形 12" class="cls-2" x="304" y="71" width="6" height="6"/>
  <rect id="長方形_12-8" data-name="長方形 12" class="cls-2" x="324" y="27" width="6" height="6"/>
  <path id="長方形_12-9" data-name="長方形 12" class="cls-3" d="M988.456,3245.27l6.364,6.37-6.364,6.36-6.364-6.36Z" transform="translate(-879 -3205)"/>
  <path id="長方形_12-10" data-name="長方形 12" class="cls-3" d="M1236.46,3334.27l6.36,6.37-6.36,6.36-6.37-6.36Z" transform="translate(-879 -3205)"/>
</svg>
