<svg id="グループ_6" data-name="グループ 6" xmlns="http://www.w3.org/2000/svg" width="141" height="202.25" viewBox="0 0 141 202.25">
  <defs>
    <style>
      .cls-1, .cls-2, .cls-3, .cls-4 {
        fill: #fabe00;
      }

      .cls-1, .cls-4 {
        fill-opacity: 0.3;
      }

      .cls-2, .cls-3 {
        fill-opacity: 0.8;
      }

      .cls-3, .cls-4 {
        fill-rule: evenodd;
      }
    </style>
  </defs>
  <rect id="長方形_12" data-name="長方形 12" class="cls-1" x="127" width="14" height="14"/>
  <rect id="長方形_12-2" data-name="長方形 12" class="cls-2" x="35" y="69" width="11" height="11"/>
  <path id="長方形_12-3" data-name="長方形 12" class="cls-3" d="M107.121,9095L119,9083.12,130.879,9095,119,9106.88Z" transform="translate(-74 -9074)"/>
  <path id="長方形_12-4" data-name="長方形 12" class="cls-3" d="M188,9267.76l4.243,4.24L188,9276.24l-4.243-4.24Z" transform="translate(-74 -9074)"/>
  <path id="長方形_12-5" data-name="長方形 12" class="cls-4" d="M100,9212.76l4.243,4.24L100,9221.24,95.757,9217Z" transform="translate(-74 -9074)"/>
  <rect id="長方形_12-6" data-name="長方形 12" class="cls-2" y="53" width="6" height="6"/>
  <rect id="長方形_12-7" data-name="長方形 12" class="cls-1" x="48" y="104" width="6" height="6"/>
  <rect id="長方形_12-8" data-name="長方形 12" class="cls-2" x="98" y="116" width="6" height="6"/>
  <rect id="長方形_12-9" data-name="長方形 12" class="cls-2" x="91" y="16" width="6" height="6"/>
  <path id="長方形_12-10" data-name="長方形 12" class="cls-3" d="M177.456,9123.27l6.364,6.37-6.364,6.36-6.364-6.36Z" transform="translate(-74 -9074)"/>
</svg>
