<svg id="あしらい" xmlns="http://www.w3.org/2000/svg" width="677" height="386.97" viewBox="0 0 677 386.97">
  <defs>
    <style>
      .cls-1, .cls-2, .cls-3, .cls-4 {
        fill: #fff;
      }

      .cls-1, .cls-4 {
        fill-opacity: 0.3;
      }

      .cls-2, .cls-3 {
        fill-opacity: 0.8;
      }

      .cls-3, .cls-4 {
        fill-rule: evenodd;
      }
    </style>
  </defs>
  <rect id="長方形_12" data-name="長方形 12" class="cls-1" x="686.344" y="148.19" width="28.031" height="28.03"/>
  <rect id="長方形_12-2" data-name="長方形 12" class="cls-2" x="80.031" y="140.19" width="22.031" height="22.03"/>
  <path id="長方形_12-3" data-name="長方形 12" class="cls-3" d="M697.342,7759.99l8.49,8.5-8.49,8.49-8.489-8.49Z" transform="translate(-73 -7390)"/>
  <path id="長方形_12-4" data-name="長方形 12" class="cls-4" d="M149.039,7689.9l8.49,8.5-8.49,8.49-8.489-8.49Z" transform="translate(-73 -7390)"/>
  <path id="長方形_12-5" data-name="長方形 12" class="cls-3" d="M73,7506.15H85.006v12.01H73v-12.01Z" transform="translate(-73 -7390)"/>
  <path id="長方形_12-6" data-name="長方形 12" class="cls-4" d="M647.3,7390H659.3v12.02H647.3V7390Z" transform="translate(-73 -7390)"/>
  <path id="長方形_12-7" data-name="長方形 12" class="cls-3" d="M681.313,7532.18H693.32v12.02H681.313v-12.02Z" transform="translate(-73 -7390)"/>
  <path id="長方形_12-8" data-name="長方形 12" class="cls-3" d="M721.334,7444.07H733.34v12.01H721.334v-12.01Z" transform="translate(-73 -7390)"/>
  <path id="長方形_12-9" data-name="長方形 12" class="cls-3" d="M292.024,7470.65l12.735,12.74-12.735,12.75-12.734-12.75Z" transform="translate(-73 -7390)"/>
  <path id="長方形_12-10" data-name="長方形 12" class="cls-3" d="M788.28,7648.88l12.734,12.74-12.734,12.75-12.734-12.75Z" transform="translate(-73 -7390)"/>
</svg>
