<svg id="あしらい" xmlns="http://www.w3.org/2000/svg" width="599.875" height="145.19" viewBox="0 0 599.875 145.19">
  <defs>
    <style>
      .cls-1, .cls-2, .cls-3, .cls-4 {
        fill: #fabe00;
      }

      .cls-1, .cls-4 {
        fill-opacity: 0.3;
      }

      .cls-2, .cls-3 {
        fill-opacity: 0.8;
      }

      .cls-3, .cls-4 {
        fill-rule: evenodd;
      }
    </style>
  </defs>
  <rect id="長方形_12" data-name="長方形 12" class="cls-1" x="562.688" y="7.19" width="28.812" height="28.81"/>
  <rect id="長方形_12-2" data-name="長方形 12" class="cls-1" x="3.5" width="16.781" height="16.78"/>
  <rect id="長方形_12-3" data-name="長方形 12" class="cls-2" x="401.875" y="132" width="13.218" height="13.19"/>
  <path id="長方形_12-4" data-name="長方形 12" class="cls-3" d="M487.121,3319.09L499,3307.21l11.879,11.88L499,3330.97Z" transform="translate(-68.313 -3261.5)"/>
  <path id="長方形_12-5" data-name="長方形 12" class="cls-3" d="M578.2,3297.2l5.091,5.09-5.091,5.09-5.091-5.09Z" transform="translate(-68.313 -3261.5)"/>
  <path id="長方形_12-6" data-name="長方形 12" class="cls-4" d="M567.4,3345.2l5.091,5.09-5.091,5.09-5.091-5.09Z" transform="translate(-68.313 -3261.5)"/>
  <path id="長方形_12-7" data-name="長方形 12" class="cls-3" d="M170.2,3351.2l5.091,5.09-5.091,5.09-5.091-5.09Z" transform="translate(-68.313 -3261.5)"/>
  <path id="長方形_12-8" data-name="長方形 12" class="cls-3" d="M608.2,3359.89h7.2v7.2h-7.2v-7.2Z" transform="translate(-68.313 -3261.5)"/>
  <path id="長方形_12-9" data-name="長方形 12" class="cls-4" d="M464.2,3371.89h7.2v7.2h-7.2v-7.2Z" transform="translate(-68.313 -3261.5)"/>
  <path id="長方形_12-10" data-name="長方形 12" class="cls-3" d="M661,3345.49h7.2v7.2H661v-7.2Z" transform="translate(-68.313 -3261.5)"/>
  <path id="長方形_12-11" data-name="長方形 12" class="cls-3" d="M128.2,3338.29h7.2v7.2h-7.2v-7.2Z" transform="translate(-68.313 -3261.5)"/>
  <path id="長方形_12-12" data-name="長方形 12" class="cls-4" d="M137.147,3361.41l7.637,7.64-7.637,7.64-7.637-7.64Z" transform="translate(-68.313 -3261.5)"/>
  <path id="長方形_12-13" data-name="長方形 12" class="cls-3" d="M533.147,3367.41l7.637,7.64-7.637,7.63-7.637-7.63Z" transform="translate(-68.313 -3261.5)"/>
  <path id="長方形_12-14" data-name="長方形 12" class="cls-3" d="M75.947,3314.61l7.637,7.64-7.637,7.64-7.637-7.64Z" transform="translate(-68.313 -3261.5)"/>
  <path id="長方形_12-15" data-name="長方形 12" class="cls-3" d="M177.947,3288.22l7.637,7.63-7.637,7.64-7.637-7.64Z" transform="translate(-68.313 -3261.5)"/>
</svg>
