<svg id="あしらい" xmlns="http://www.w3.org/2000/svg" width="309" height="355.72" viewBox="0 0 309 355.72">
  <defs>
    <style>
      .cls-1, .cls-2, .cls-3, .cls-4 {
        fill: #fabe00;
      }

      .cls-1, .cls-4 {
        fill-opacity: 0.3;
      }

      .cls-2, .cls-3 {
        fill-opacity: 0.8;
      }

      .cls-2, .cls-4 {
        fill-rule: evenodd;
      }
    </style>
  </defs>
  <rect id="長方形_12" data-name="長方形 12" class="cls-1" x="271" y="302.72" width="14" height="14"/>
  <rect id="長方形_12-2" data-name="長方形 12" class="cls-1" x="32" y="40.72" width="14" height="14"/>
  <path id="長方形_12-3" data-name="長方形 12" class="cls-2" d="M414.121,5060L426,5048.12,437.879,5060,426,5071.88Z" transform="translate(-364 -4965.28)"/>
  <path id="長方形_12-4" data-name="長方形 12" class="cls-2" d="M398,5100.76l4.243,4.24L398,5109.24l-4.243-4.24Z" transform="translate(-364 -4965.28)"/>
  <path id="長方形_12-5" data-name="長方形 12" class="cls-2" d="M422,5256.76l4.243,4.24L422,5265.24l-4.243-4.24Z" transform="translate(-364 -4965.28)"/>
  <rect id="長方形_12-6" data-name="長方形 12" class="cls-1" x="303" y="339.72" width="6" height="6"/>
  <rect id="長方形_12-7" data-name="長方形 12" class="cls-3" x="236" y="316.72" width="6" height="6"/>
  <rect id="長方形_12-8" data-name="長方形 12" class="cls-3" y="79.72" width="6" height="6"/>
  <rect id="長方形_12-9" data-name="長方形 12" class="cls-3" x="5" y="279.72" width="6" height="6"/>
  <path id="長方形_12-10" data-name="長方形 12" class="cls-4" d="M472.456,5032.27l6.364,6.37-6.364,6.36-6.364-6.36Z" transform="translate(-364 -4965.28)"/>
  <path id="長方形_12-11" data-name="長方形 12" class="cls-2" d="M625.456,5308.27l6.364,6.37-6.364,6.36-6.364-6.36Z" transform="translate(-364 -4965.28)"/>
  <path id="長方形_12-12" data-name="長方形 12" class="cls-2" d="M379.456,5277.27l6.364,6.37-6.364,6.36-6.364-6.36Z" transform="translate(-364 -4965.28)"/>
  <path id="長方形_12-13" data-name="長方形 12" class="cls-2" d="M439.456,4965.27l6.364,6.37-6.364,6.36-6.364-6.36Z" transform="translate(-364 -4965.28)"/>
</svg>
