<svg id="あしらい" xmlns="http://www.w3.org/2000/svg" width="358.812" height="357" viewBox="0 0 358.812 357">
  <defs>
    <style>
      .cls-1, .cls-2, .cls-3, .cls-4 {
        fill: #fabe00;
      }

      .cls-1, .cls-4 {
        fill-opacity: 0.3;
      }

      .cls-2, .cls-3 {
        fill-opacity: 0.8;
      }

      .cls-3, .cls-4 {
        fill-rule: evenodd;
      }
    </style>
  </defs>
  <rect id="長方形_12" data-name="長方形 12" class="cls-1" x="108" y="27" width="14" height="14"/>
  <rect id="長方形_12-2" data-name="長方形 12" class="cls-1" x="322" y="283" width="14" height="14"/>
  <rect id="長方形_12-3" data-name="長方形 12" class="cls-2" x="7" y="75" width="11" height="11"/>
  <path id="長方形_12-4" data-name="長方形 12" class="cls-3" d="M181.121,4109L193,4097.12,204.879,4109,193,4120.88Z" transform="translate(-138 -4068)"/>
  <path id="長方形_12-5" data-name="長方形 12" class="cls-3" d="M290,4093.76l4.243,4.24L290,4102.24l-4.243-4.24Z" transform="translate(-138 -4068)"/>
  <path id="長方形_12-6" data-name="長方形 12" class="cls-4" d="M164,4188.76l4.243,4.24L164,4197.24l-4.243-4.24Z" transform="translate(-138 -4068)"/>
  <path id="長方形_12-7" data-name="長方形 12" class="cls-3" d="M435,4377.76l4.243,4.24L435,4386.24l-4.243-4.24Z" transform="translate(-138 -4068)"/>
  <rect id="長方形_12-8" data-name="長方形 12" class="cls-2" y="35" width="6" height="6"/>
  <rect id="長方形_12-9" data-name="長方形 12" class="cls-1" x="48" y="86" width="6" height="6"/>
  <rect id="長方形_12-10" data-name="長方形 12" class="cls-2" x="127" y="70" width="6" height="6"/>
  <rect id="長方形_12-11" data-name="長方形 12" class="cls-2" x="77" width="6" height="6"/>
  <rect id="長方形_12-12" data-name="長方形 12" class="cls-2" x="325" y="351" width="6" height="6"/>
  <path id="長方形_12-13" data-name="長方形 12" class="cls-4" d="M335.456,4386.27l6.364,6.37-6.364,6.36-6.364-6.36Z" transform="translate(-138 -4068)"/>
  <path id="長方形_12-14" data-name="長方形 12" class="cls-3" d="M227.456,4133.27l6.364,6.37-6.364,6.36-6.364-6.36Z" transform="translate(-138 -4068)"/>
  <path id="長方形_12-15" data-name="長方形 12" class="cls-3" d="M398.456,4386.27l6.364,6.37-6.364,6.36-6.364-6.36Z" transform="translate(-138 -4068)"/>
  <path id="長方形_12-16" data-name="長方形 12" class="cls-3" d="M490.456,4392.27l6.364,6.37-6.364,6.36-6.364-6.36Z" transform="translate(-138 -4068)"/>
</svg>
