<?xml version="1.0" encoding="utf-8"?>
<!-- Generator: Adobe Illustrator 20.1.0, SVG Export Plug-In . SVG Version: 6.00 Build 0)  -->
<svg version="1.1" id="グループ_1" xmlns="http://www.w3.org/2000/svg" xmlns:xlink="http://www.w3.org/1999/xlink" x="0px"
	 y="0px" width="1125.1px" height="425.2px" viewBox="0 0 1125.1 425.2" style="enable-background:new 0 0 1125.1 425.2;"
	 xml:space="preserve">
<style type="text/css">
	.st0{fill:#FABE00;fill-opacity:0.6;}
	.st1{fill:#FABE00;fill-opacity:0.3;}
	.st2{fill:#FABE00;}
</style>
<path id="長方形_11" class="st0" d="M1024,155.5l12,12l-12,12l-12-12L1024,155.5z"/>
<path id="長方形_11-2" class="st0" d="M12,229.5l12,12l-12,12l-12-12L12,229.5z"/>
<path id="長方形_11-3" class="st1" d="M122.5,354v17h-17v-17H122.5z"/>
<path id="長方形_11-4" class="st0" d="M967.5,404v17h-17v-17H967.5z"/>
<path id="長方形_11-5" class="st2" d="M1125,341.5l-12,12l-12-12l12-12L1125,341.5z"/>
<rect id="長方形_11-6" x="908.5" y="239" class="st2" width="10" height="10"/>
<rect id="長方形_11-7" x="1102.5" y="38" class="st2" width="10" height="10"/>
<rect id="長方形_11-8" x="262.5" y="104" class="st1" width="10" height="10"/>
<path id="長方形_11-9" class="st2" d="M226.5,221.9l7.1,7.1l-7.1,7.1l-7.1-7.1L226.5,221.9z"/>
<path id="長方形_11-10" class="st2" d="M146.5,5.9l7.1,7.1l-7.1,7.1l-7.1-7.1L146.5,5.9z"/>
<rect id="長方形_11-11" x="1106.5" y="208" class="st0" width="6" height="6"/>
<rect id="長方形_11-12" x="108.5" y="149" class="st0" width="6" height="6"/>
<path id="長方形_11-13" class="st0" d="M1004.5,44.8l4.2,4.2l-4.2,4.2l-4.2-4.2L1004.5,44.8z"/>
<rect id="長方形_11-14" x="923.5" class="st0" width="6" height="6"/>
<path id="長方形_11-15" class="st1" d="M1058.5,313.8l4.2,4.2l-4.2,4.2l-4.2-4.2L1058.5,313.8z"/>
<path id="長方形_11-16" class="st0" d="M279.5,416.8l4.2,4.2l-4.2,4.2l-4.2-4.2L279.5,416.8z"/>
<path id="長方形_11-17" class="st2" d="M892.5,113.8l4.2,4.2l-4.2,4.2l-4.2-4.2L892.5,113.8z"/>
<path id="長方形_11-18" class="st0" d="M932.5,174L932.5,174z"/>
</svg>
