<?xml version="1.0" encoding="utf-8"?>
<!-- Generator: Adobe Illustrator 20.1.0, SVG Export Plug-In . SVG Version: 6.00 Build 0)  -->
<svg version="1.1" id="レイヤー_1" xmlns="http://www.w3.org/2000/svg" xmlns:xlink="http://www.w3.org/1999/xlink" x="0px"
	 y="0px" width="564.3px" height="45.6px" viewBox="0 0 564.3 45.6" style="enable-background:new 0 0 564.3 45.6;"
	 xml:space="preserve">
<style type="text/css">
	.st0{fill:#FABE00;}
</style>
<g>
	<path class="st0" d="M126.7,24.4c-0.2,0-0.4,0-0.7,0c-0.3,0-0.6-0.2-0.7-0.5l-7.7-16.5c-0.1-0.2-0.1-0.4,0-0.6
		c0.1-0.2,0.2-0.4,0.4-0.4l2.4-1.1c0.2-0.1,0.4-0.3,0.4-0.5c0.1-0.2,0.1-0.4,0-0.6l-1.7-3.7c-0.2-0.4-0.7-0.6-1.1-0.4l-11.4,5.3
		c-0.2,0.1-0.4,0.3-0.4,0.5c-0.1,0.2-0.1,0.4,0,0.6l1.7,3.7c0.2,0.4,0.7,0.6,1.1,0.4l2.4-1.1c0.4-0.2,0.9,0,1,0.4l1.8,3.8
		c0.2,0.4,0,0.8-0.3,1C101.5,21.4,85.5,25,68.7,25s-32.9-3.7-45.2-10.4c-0.4-0.2-0.5-0.6-0.3-1l1.8-3.8c0.2-0.4,0.7-0.6,1-0.4
		l2.4,1.1c0.4,0.2,0.9,0,1.1-0.4l1.7-3.7c0.1-0.2,0.1-0.4,0-0.6c-0.1-0.2-0.2-0.4-0.4-0.5L19.4,0.1c-0.4-0.2-0.9,0-1.1,0.4l-1.7,3.7
		c-0.1,0.2-0.1,0.4,0,0.6c0.1,0.2,0.2,0.4,0.4,0.5l2.4,1.1c0.2,0.1,0.3,0.2,0.4,0.4c0.1,0.2,0.1,0.4,0,0.6L12,23.9
		c-0.1,0.3-0.4,0.4-0.8,0.4c0,0,0,0,0,0c-0.2,0-0.4,0-0.6,0C4.8,24.4,0,29.1,0,35c0,5.9,4.8,10.6,10.6,10.6
		c5.9,0,10.6-4.8,10.6-10.6c0-3.1-1.3-6-3.7-8.1c-0.3-0.2-0.3-0.6-0.2-0.9l2.8-6.1c0.1-0.2,0.3-0.4,0.5-0.4c0.2-0.1,0.4,0,0.6,0.1
		c11.8,7,29.5,16.2,47.4,16.2s35.6-9.3,47.4-16.2c0.2-0.1,0.4-0.1,0.6-0.1c0.2,0.1,0.4,0.2,0.5,0.4l2.8,6.1c0.1,0.3,0.1,0.7-0.2,0.9
		c-2.3,2-3.7,5-3.7,8.1c0,5.9,4.8,10.6,10.6,10.6c5.9,0,10.6-4.8,10.6-10.6C137.4,29.1,132.6,24.4,126.7,24.4z M126.7,39.9
		c-2.7,0-4.9-2.2-4.9-4.9s2.2-4.9,4.9-4.9c2.7,0,4.9,2.2,4.9,4.9S129.4,39.9,126.7,39.9z M10.6,39.9c-2.7,0-4.9-2.2-4.9-4.9
		s2.2-4.9,4.9-4.9c2.7,0,4.9,2.2,4.9,4.9S13.3,39.9,10.6,39.9z"/>
	<g>
		<g>
			<path d="M471.6,30.9H457c-0.4,0-0.7-0.3-0.7-0.7V10.1c0-0.4-0.3-0.8-0.8-0.8h-4.2c-0.4,0-0.8,0.3-0.8,0.8v25.5
				c0,0.4,0.3,0.8,0.8,0.8h20.2c0.4,0,0.8-0.3,0.8-0.8v-3.9C472.4,31.2,472.1,30.9,471.6,30.9z"/>
			<path d="M487.4,9.3h-4.2c-0.4,0-0.8,0.3-0.8,0.8v25.5c0,0.4,0.3,0.8,0.8,0.8h4.2c0.4,0,0.8-0.3,0.8-0.8V10.1
				C488.2,9.7,487.9,9.3,487.4,9.3z"/>
			<path d="M526.1,9.3h-4.2c-0.4,0-0.8,0.3-0.8,0.8v14.7c0,0.3-0.2,0.6-0.5,0.7c-0.3,0.1-0.6,0-0.8-0.2L506.5,9.6
				c-0.1-0.2-0.4-0.3-0.6-0.3h-4.2c-0.4,0-0.8,0.3-0.8,0.8v25.5c0,0.4,0.3,0.8,0.8,0.8h4.2c0.4,0,0.8-0.3,0.8-0.8V20.9
				c0-0.3,0.2-0.6,0.5-0.7c0.3-0.1,0.6,0,0.8,0.2l13.4,15.6c0.1,0.2,0.4,0.3,0.6,0.3h4.2c0.4,0,0.8-0.3,0.8-0.8V10.1
				C526.8,9.7,526.5,9.3,526.1,9.3z"/>
			<path d="M408,9.3h-5c-0.2,0-0.5,0.1-0.6,0.3l-5.9,8.7c-0.3,0.4-0.9,0.4-1.2,0l-5.9-8.7c-0.1-0.2-0.4-0.3-0.6-0.3h-5
				c-0.3,0-0.5,0.2-0.7,0.4c-0.1,0.2-0.1,0.5,0,0.8l9.8,14.6c0.1,0.1,0.1,0.3,0.1,0.4v10.1c0,0.4,0.3,0.8,0.8,0.8h4.2
				c0.4,0,0.8-0.3,0.8-0.8V25.5c0-0.1,0-0.3,0.1-0.4l9.8-14.6c0.2-0.2,0.2-0.5,0-0.8C408.5,9.5,408.3,9.3,408,9.3z"/>
			<path d="M365.3,14c2.4,0,4.6,0.9,6.3,2.6c0.3,0.3,0.8,0.3,1.1,0l2.8-2.8c0.1-0.1,0.2-0.3,0.2-0.5s-0.1-0.4-0.2-0.5
				c-2.7-2.7-6.3-4.2-10.1-4.2s-7.4,1.5-10.1,4.2c-2.7,2.7-4.2,6.3-4.2,10.1c0,3.8,1.5,7.4,4.2,10.1c2.7,2.7,6.3,4.2,10.1,4.2
				c3.8,0,7.4-1.5,10.1-4.2c0.3-0.3,0.3-0.8,0-1.1l-2.8-2.8c-0.3-0.3-0.8-0.3-1.1,0c-1.7,1.7-3.9,2.6-6.3,2.6
				c-2.4,0-4.6-0.9-6.3-2.6c-1.7-1.7-2.6-3.9-2.6-6.3s0.9-4.6,2.6-6.3C360.7,14.9,362.9,14,365.3,14z"/>
			<path d="M429.4,14c2.4,0,4.6,0.9,6.3,2.6c0.3,0.3,0.8,0.3,1.1,0l2.8-2.8c0.1-0.1,0.2-0.3,0.2-0.5s-0.1-0.4-0.2-0.5
				c-2.7-2.7-6.3-4.2-10.1-4.2s-7.4,1.5-10.1,4.2c-2.7,2.7-4.2,6.3-4.2,10.1c0,3.8,1.5,7.4,4.2,10.1c2.7,2.7,6.3,4.2,10.1,4.2
				c3.8,0,7.4-1.5,10.1-4.2c0.3-0.3,0.3-0.8,0-1.1l-2.8-2.8c-0.3-0.3-0.8-0.3-1.1,0c-1.7,1.7-3.9,2.6-6.3,2.6
				c-2.4,0-4.6-0.9-6.3-2.6c-1.7-1.7-2.6-3.9-2.6-6.3s0.9-4.6,2.6-6.3C424.8,14.9,427,14,429.4,14z"/>
			<path d="M563.5,21.5h-10.7c-0.4,0-0.8,0.3-0.8,0.8V26c0,0.4,0.3,0.8,0.8,0.8h4.6c0.2,0,0.5,0.1,0.6,0.3c0.1,0.2,0.2,0.5,0.1,0.7
				c-0.4,0.9-1,1.7-1.8,2.4c-1.4,1.2-3,1.8-4.7,1.8c-2.1,0-4-0.8-5.8-2.4c-1.9-1.7-2.9-3.9-2.9-6.6c0-2.6,0.8-4.7,2.6-6.5
				c1.7-1.7,3.9-2.6,6.4-2.6c2.3,0,4.4,0.9,6.2,2.7c0.1,0.1,0.3,0.2,0.5,0.2s0.4-0.1,0.5-0.2l2.6-2.6c0.1-0.1,0.2-0.3,0.2-0.5
				c0-0.2-0.1-0.4-0.2-0.5c-1.3-1.3-2.6-2.2-4-2.9c-1.9-0.9-3.9-1.3-6-1.3c-4,0-7.4,1.4-10.2,4.2c-2.8,2.8-4.2,6.2-4.2,10.1
				c0,3.9,1.4,7.2,4.1,10c2.7,2.8,6,4.2,9.9,4.2c3.9,0,7.2-1.5,9.8-4.3c1.1-1.3,1.9-2.7,2.4-4.2c0.5-1.6,0.7-3.4,0.7-5.4v-0.9
				C564.3,21.9,563.9,21.5,563.5,21.5z"/>
		</g>
		<g>
			<path d="M190.5,35.6V10.1c0-0.4-0.3-0.7-0.7-0.7h-4.2c-0.4,0-0.7,0.3-0.7,0.7v9.3c0,0.4-0.3,0.7-0.7,0.7h-13
				c-0.4,0-0.7-0.3-0.7-0.7v-9.3c0-0.4-0.3-0.7-0.7-0.7h-4.2c-0.4,0-0.7,0.3-0.7,0.7v25.5c0,0.4,0.3,0.7,0.7,0.7h4.2
				c0.4,0,0.7-0.3,0.7-0.7v-9.3c0-0.4,0.3-0.7,0.7-0.7h13c0.4,0,0.7,0.3,0.7,0.7v9.3c0,0.4,0.3,0.7,0.7,0.7h4.2
				C190.2,36.3,190.5,36,190.5,35.6z"/>
			<path d="M204.1,36.3h20.1c0.4,0,0.7-0.3,0.7-0.7v-3.9c0-0.4-0.3-0.7-0.7-0.7h-14.5c-0.4,0-0.7-0.3-0.7-0.7v-3.9
				c0-0.4,0.3-0.7,0.7-0.7h9.4c0.4,0,0.7-0.3,0.7-0.7v-3.9c0-0.4-0.3-0.7-0.7-0.7h-9.4c-0.4,0-0.7-0.3-0.7-0.7v-3.9
				c0-0.4,0.3-0.7,0.7-0.7h14.5c0.4,0,0.7-0.3,0.7-0.7v-3.9c0-0.4-0.3-0.7-0.7-0.7h-20.1c-0.4,0-0.7,0.3-0.7,0.7v25.5
				C203.4,36,203.7,36.3,204.1,36.3z"/>
			<path d="M258.4,30.9h-14.6c-0.4,0-0.7-0.3-0.7-0.7V10.1c0-0.4-0.3-0.7-0.7-0.7h-4.2c-0.4,0-0.7,0.3-0.7,0.7v25.5
				c0,0.4,0.3,0.7,0.7,0.7h20.3c0.4,0,0.7-0.3,0.7-0.7v-3.9C259.2,31.2,258.8,30.9,258.4,30.9z"/>
			<path d="M291.4,35.6v-3.9c0-0.4-0.3-0.7-0.7-0.7H276c-0.4,0-0.7-0.3-0.7-0.7V10.1c0-0.4-0.3-0.7-0.7-0.7h-4.2
				c-0.4,0-0.7,0.3-0.7,0.7v25.5c0,0.4,0.3,0.7,0.7,0.7h20.3C291,36.3,291.4,36,291.4,35.6z"/>
			<path d="M322.8,32.9c2.8-2.7,4.2-6.1,4.2-10.1c0-3.9-1.4-7.3-4.2-10.1c-2.8-2.8-6.2-4.2-10.1-4.2c-3.9,0-7.4,1.4-10.2,4.2
				c-2.8,2.8-4.3,6.1-4.3,10c0,4.4,1.6,8,4.7,10.7c2.8,2.4,6,3.7,9.5,3.7C316.5,37.1,320,35.7,322.8,32.9z M312.7,13.8
				c2.5,0,4.6,0.9,6.3,2.6c1.7,1.7,2.6,3.9,2.6,6.5c0,2.5-0.9,4.7-2.6,6.5c-1.7,1.7-3.9,2.6-6.4,2.6c-2.3,0-4.4-0.8-6.2-2.6
				c-1.8-1.7-2.7-3.9-2.7-6.6c0-2.6,0.8-4.7,2.6-6.4C308,14.6,310.2,13.8,312.7,13.8z"/>
		</g>
	</g>
</g>
</svg>
